<?xml version="1.0" encoding="UTF-8"?>
<svg xmlns="http://www.w3.org/2000/svg" xmlns:xlink="http://www.w3.org/1999/xlink" width="256pt" height="256pt" viewBox="0 0 256 256" version="1.1">
<g id="surface1">
<path style=" stroke:none;fill-rule:nonzero;fill:rgb(86.666667%,33.333333%,100%);fill-opacity:1;" d="M 127.976562 0.03125 C 93.605469 0.03125 62.03125 13.128906 37.671875 37.484375 C 13.316406 61.839844 0.21875 93.417969 0.21875 127.789062 C 0.21875 162.160156 13.316406 193.734375 37.671875 218.089844 C 58.125 238.542969 83.6875 251.058594 112.617188 254.78125 C 123.976562 256.246094 141.390625 255.503906 153.804688 253.03125 C 198.496094 244.125 236.679688 209.507812 250.0625 165.765625 C 264.101562 119.871094 252.058594 71.261719 218.28125 37.484375 C 193.921875 13.128906 162.347656 0.03125 127.976562 0.03125 Z M 126.8125 10.050781 C 145.300781 9.882812 163.777344 14.070312 180.617188 22.507812 C 203.695312 34.070312 221.695312 52.066406 233.257812 75.148438 C 249.878906 108.324219 249.878906 147.253906 233.257812 180.429688 C 227.457031 192.003906 221.679688 200.144531 212.476562 209.703125 C 193.003906 229.929688 167.222656 242.261719 138.546875 245.0625 C 117.160156 247.152344 95.089844 242.964844 75.335938 233.066406 C 63.757812 227.269531 55.621094 221.492188 46.0625 212.289062 C 9.191406 176.796875 -0.304688 121.058594 22.695312 75.148438 C 36.523438 47.550781 60.273438 26.671875 89.363281 16.546875 C 101.507812 12.320312 114.164062 10.167969 126.8125 10.050781 Z M 126.8125 10.050781 "/>
<path style=" stroke:none;fill-rule:nonzero;fill:rgb(86.666667%,33.333333%,100%);fill-opacity:1;" d="M 183.984375 78.230469 L 66.121094 78.230469 C 58.28125 78.230469 55.433594 84.617188 55.433594 88.910156 L 55.433594 162.277344 C 55.433594 169.664062 60.5625 172.976562 65.644531 172.976562 C 65.914062 172.976562 66.132812 172.972656 66.292969 172.957031 L 190.050781 172.957031 C 197.886719 172.957031 200.734375 166.566406 200.734375 162.273438 L 200.734375 94.976562 Z M 63.980469 145.972656 L 69.601562 151.589844 L 63.980469 151.589844 Z M 81.6875 151.589844 L 69.933594 139.835938 L 74.945312 139.835938 L 86.695312 151.589844 Z M 98.78125 151.589844 L 87.027344 139.835938 L 92.210938 139.835938 L 103.855469 151.589844 Z M 115.890625 151.589844 L 104.242188 139.835938 L 109.132812 139.835938 L 120.886719 151.589844 Z M 132.96875 151.589844 L 121.214844 139.835938 L 126.222656 139.835938 L 137.976562 151.589844 Z M 150.0625 151.589844 L 138.308594 139.835938 L 143.410156 139.835938 L 155.164062 151.589844 Z M 167.246094 151.589844 L 155.496094 139.835938 L 160.503906 139.835938 L 172.257812 151.589844 Z M 184.34375 151.589844 L 172.585938 139.835938 L 176.933594 139.835938 L 188.683594 151.589844 Z M 189.019531 139.835938 L 192.1875 139.835938 L 192.1875 143.003906 Z M 63.980469 88.980469 C 64.0625 86.773438 65.398438 86.773438 66.117188 86.773438 L 180.445312 86.773438 L 192.1875 98.515625 L 192.1875 131.289062 L 63.980469 131.289062 Z M 190.050781 164.410156 L 66.121094 164.410156 L 65.644531 164.425781 C 64.515625 164.425781 63.980469 164.21875 63.980469 162.273438 L 63.980469 160.136719 L 192.1875 160.136719 L 192.1875 162.273438 C 192.1875 163.691406 191.46875 164.410156 190.050781 164.410156 Z M 190.050781 164.410156 "/>
</g>
</svg>
